<?xml version="1.0" encoding="UTF-8" standalone="no"?>
<!-- Created with Inkscape (http://www.inkscape.org/) -->

<svg
   xmlns:dc="http://purl.org/dc/elements/1.1/"
   xmlns:cc="http://creativecommons.org/ns#"
   xmlns:rdf="http://www.w3.org/1999/02/22-rdf-syntax-ns#"
   xmlns:svg="http://www.w3.org/2000/svg"
   xmlns="http://www.w3.org/2000/svg"
   xmlns:sodipodi="http://sodipodi.sourceforge.net/DTD/sodipodi-0.dtd"
   xmlns:inkscape="http://www.inkscape.org/namespaces/inkscape"
   width="22.1092mm"
   height="22.1092mm"
   viewBox="0 0 22.1092 22.1092"
   version="1.1"
   id="svg899"
   inkscape:version="0.92.2 (unknown)"
   sodipodi:docname="bTMP.svg">
  <defs
     id="defs893" />
  <sodipodi:namedview
     id="base"
     pagecolor="#ffffff"
     bordercolor="#666666"
     borderopacity="1.0"
     inkscape:pageopacity="0.0"
     inkscape:pageshadow="2"
     inkscape:zoom="0.35"
     inkscape:cx="-842.50455"
     inkscape:cy="-34.404125"
     inkscape:document-units="mm"
     inkscape:current-layer="layer1"
     showgrid="false"
     inkscape:window-width="1366"
     inkscape:window-height="725"
     inkscape:window-x="0"
     inkscape:window-y="0"
     inkscape:window-maximized="1" />
  <metadata
     id="metadata896">
    <rdf:RDF>
      <cc:Work
         rdf:about="">
        <dc:format>image/svg+xml</dc:format>
        <dc:type
           rdf:resource="http://purl.org/dc/dcmitype/StillImage" />
        <dc:title></dc:title>
      </cc:Work>
    </rdf:RDF>
  </metadata>
  <g
     inkscape:label="Layer 1"
     inkscape:groupmode="layer"
     id="layer1"
     transform="translate(-198.34421,-117.62137)">
    <g
       transform="translate(887.91973,1595.6993)"
       id="g874">
      <path
         d="m -677.33561,-1467.8925 c 1.06116,-0.2258 1.64818,-0.7338 1.64818,-1.7498 0,-1.5353 -1.34338,-1.9756 -3.68018,-1.9756 h -2.98026 v 0.2823 c 0.22577,0 0.45155,0.2257 0.45155,0.4515 v 7.5636 c 0,0.2257 -0.22578,0.4515 -0.45155,0.4515 v 0.2822 h 3.3528 c 2.07715,0 4.30106,-0.4176 4.30106,-2.7093 0,-1.682 -1.19662,-2.3481 -2.6416,-2.5964 z m -2.6416,-2.9916 c 0,-0.2258 0.22578,-0.4515 0.45156,-0.4515 h 0.15804 c 1.16276,0 1.64818,0.5305 1.64818,1.6933 0,1.1627 -0.48542,1.6369 -1.64818,1.6369 h -0.15804 c -0.22578,0 -0.45156,-0.2258 -0.45156,-0.4516 z m 0.45156,8.0151 c -0.22578,0 -0.45156,-0.2258 -0.45156,-0.4515 v -3.9511 c 0,-0.2258 0.22578,-0.4516 0.45156,-0.4516 h 0.53058 c 1.26435,0 2.26906,0.8241 2.26906,2.4271 0,1.603 -1.00471,2.4271 -2.26906,2.4271 z"
         style="font-style:normal;font-variant:normal;font-weight:normal;font-stretch:normal;font-size:medium;line-height:1.25;font-family:Agne;-inkscape-font-specification:Agne;letter-spacing:0px;word-spacing:0px;fill:#000000;fill-opacity:1;stroke:none;stroke-width:0.26458332"
         id="path860"
         inkscape:connector-curvature="0" />
      <g
         id="g866"
         transform="translate(33.874193,-21.321827)">
        <path
           d="m -704.84623,-1456.7561 v 3.5057 h -1.18231 v -1.9843 h -12.73309 v 1.9843 h -1.1824 v -3.5057 z"
           style="font-style:normal;font-variant:normal;font-weight:normal;font-stretch:normal;font-size:16.93333244px;line-height:1.25;font-family:Agne;-inkscape-font-specification:Agne;letter-spacing:0px;word-spacing:0px;fill:#000000;fill-opacity:1;stroke:none;stroke-width:0.26458332"
           id="path862"
           inkscape:connector-curvature="0" />
        <path
           d="m -704.84623,-1434.6469 h -15.0978 v -3.5057 h 1.1824 v 1.9761 h 12.73308 v -1.9761 h 1.18232 z"
           style="font-style:normal;font-variant:normal;font-weight:normal;font-stretch:normal;font-size:16.93333244px;line-height:1.25;font-family:Agne;-inkscape-font-specification:Agne;letter-spacing:0px;word-spacing:0px;fill:#000000;fill-opacity:1;stroke:none;stroke-width:0.26458332"
           id="path864"
           inkscape:connector-curvature="0" />
      </g>
      <g
         transform="rotate(90,-684.79712,-1439.4253)"
         id="g872">
        <path
           inkscape:connector-curvature="0"
           id="path868"
           style="font-style:normal;font-variant:normal;font-weight:normal;font-stretch:normal;font-size:16.93333244px;line-height:1.25;font-family:Agne;-inkscape-font-specification:Agne;letter-spacing:0px;word-spacing:0px;fill:#000000;fill-opacity:1;stroke:none;stroke-width:0.26458332"
           d="m -704.84623,-1456.7561 v 3.5057 h -1.18231 v -1.9843 h -12.73309 v 1.9843 h -1.1824 v -3.5057 z" />
        <path
           inkscape:connector-curvature="0"
           id="path870"
           style="font-style:normal;font-variant:normal;font-weight:normal;font-stretch:normal;font-size:16.93333244px;line-height:1.25;font-family:Agne;-inkscape-font-specification:Agne;letter-spacing:0px;word-spacing:0px;fill:#000000;fill-opacity:1;stroke:none;stroke-width:0.26458332"
           d="m -704.84623,-1434.6469 h -15.0978 v -3.5057 h 1.1824 v 1.9761 h 12.73308 v -1.9761 h 1.18232 z" />
      </g>
    </g>
  </g>
</svg>
